<svg width="50" height="48" viewBox="0 0 50 48" fill="none" xmlns="http://www.w3.org/2000/svg">
<rect width="50" height="48" rx="6" fill="#EBEFF3"/>
<path fill-rule="evenodd" clip-rule="evenodd" d="M18 16H32C32.5523 16 33 16.4477 33 17V31C33 31.5523 32.5523 32 32 32H18C17.4477 32 17 31.5523 17 31V17C17 16.4477 17.4477 16 18 16ZM15 17C15 15.3431 16.3431 14 18 14H32C33.6569 14 35 15.3431 35 17V31C35 32.6569 33.6569 34 32 34H18C16.3431 34 15 32.6569 15 31V17ZM25 24C22.2386 24 20 21.3137 20 18H22C22 20.5661 23.6691 22 25 22C26.3309 22 28 20.5661 28 18H30C30 21.3137 27.7614 24 25 24Z" fill="#545D6A"/>
</svg>
