<svg width="50" height="48" viewBox="0 0 50 48" fill="none" xmlns="http://www.w3.org/2000/svg">
<rect width="50" height="48" rx="6" fill="#EBEFF3"/>
<path d="M19.0033 16.0578C18.9118 16.0244 18.8096 16.0617 18.7612 16.1461L17.9719 17.5217L14.0275 24.2457C14.0095 24.2764 14 24.3113 14 24.3469V24.5218C14 26.8974 15.9842 28.8301 18.4231 28.8301C20.862 28.8301 22.8462 26.8974 22.8462 24.5218V24.3469C22.8462 24.3113 22.8367 24.2764 22.8187 24.2457L19.4034 18.4221C19.3085 18.2603 19.4684 18.0687 19.6445 18.1331L22.8066 19.2881C22.8335 19.2979 22.8462 19.3232 22.8462 19.3518C22.8462 20.4246 23.5248 21.3383 24.4822 21.7281C24.5611 21.7602 24.6154 21.8354 24.6154 21.9205V32.0767C24.6154 32.1871 24.5258 32.2767 24.4154 32.2767H21.2769C21.1665 32.2767 21.0769 32.3662 21.0769 32.4767V33.8C21.0769 33.9105 21.1665 34 21.2769 34H26.1846C26.2951 34 26.3846 33.9105 26.3846 33.8V21.9203C26.3846 21.8352 26.4387 21.7602 26.5174 21.728C26.858 21.5885 27.1649 21.3812 27.4183 21.1193C27.4765 21.0591 27.5645 21.0363 27.6429 21.066L31.462 22.5129C31.5778 22.5568 31.6263 22.6943 31.5636 22.8011L28.1813 28.5678C28.1633 28.5985 28.1538 28.6334 28.1538 28.669V28.8438C28.1538 31.2186 30.138 33.1383 32.5769 33.1383C35.0158 33.1383 37 31.2186 37 28.8438V28.669C37 28.6334 36.9905 28.5985 36.9725 28.5678L32.6127 21.1361C32.5896 21.0967 32.5536 21.0663 32.5108 21.0502L28.1988 19.4242C28.1686 19.4128 28.1538 19.3842 28.1538 19.3518C28.1538 17.9267 26.9632 16.7669 25.5 16.7669C25.1145 16.7683 24.7341 16.8521 24.3854 17.0123C24.0794 17.1529 23.8044 17.3494 23.5752 17.5907C23.5176 17.6513 23.4301 17.675 23.3516 17.6463L19.0033 16.0578ZM25.5 18.4902C25.7278 18.5001 25.9428 18.5952 26.1004 18.7557C26.258 18.9162 26.3459 19.1298 26.3459 19.3518C26.3459 19.5739 26.258 19.7874 26.1004 19.948C25.9428 20.1085 25.7278 20.2036 25.5 20.2135C25.2722 20.2036 25.0572 20.1085 24.8996 19.948C24.742 19.7874 24.6541 19.5739 24.6541 19.3518C24.6541 19.1298 24.742 18.9162 24.8996 18.7557C25.0572 18.5952 25.2722 18.5001 25.5 18.4902ZM18.2506 20.5213C18.3279 20.3896 18.5183 20.3896 18.5956 20.5213L20.2606 23.3589C20.3388 23.4922 20.2427 23.6601 20.0881 23.6601H16.758C16.6035 23.6601 16.5073 23.4922 16.5856 23.3589L18.2506 20.5213ZM32.4044 24.8425C32.4817 24.7108 32.6721 24.7108 32.7494 24.8425L34.4065 27.6672C34.4847 27.8005 34.3886 27.9684 34.234 27.9684H30.9198C30.7652 27.9684 30.6691 27.8005 30.7473 27.6672L32.4044 24.8425ZM16.0468 25.6462C15.9849 25.5218 16.0809 25.3834 16.2199 25.3834H20.6275C20.7661 25.3834 20.8622 25.5211 20.8008 25.6454C20.6075 26.0371 20.3148 26.3763 19.9485 26.6299C19.5028 26.9385 18.9699 27.1051 18.4231 27.1067C17.3748 27.1067 16.4759 26.5086 16.0468 25.6462ZM30.1916 29.9527C30.1312 29.8285 30.2273 29.6917 30.3654 29.6917H34.7884C34.9265 29.6917 35.0226 29.8285 34.9623 29.9527C34.7701 30.3484 34.4769 30.6915 34.1087 30.9479C33.6617 31.2591 33.1264 31.4272 32.5769 31.4288C32.0275 31.4272 31.4921 31.2591 31.0451 30.9479C30.677 30.6915 30.3838 30.3484 30.1916 29.9527Z" fill="#545D6A"/>
</svg>
