<svg width="51" height="48" viewBox="0 0 51 48" fill="none" xmlns="http://www.w3.org/2000/svg">
<rect width="51" height="48" rx="6" fill="#EBEFF3"/>
<path d="M34 33V31C34 29.9391 33.5786 28.9217 32.8284 28.1716C32.0783 27.4214 31.0609 27 30 27H22C20.9391 27 19.9217 27.4214 19.1716 28.1716C18.4214 28.9217 18 29.9391 18 31V33" stroke="#545D6A" stroke-width="2" stroke-linecap="round" stroke-linejoin="round"/>
<path d="M26 23C28.2091 23 30 21.2091 30 19C30 16.7909 28.2091 15 26 15C23.7909 15 22 16.7909 22 19C22 21.2091 23.7909 23 26 23Z" stroke="#545D6A" stroke-width="2" stroke-linecap="round" stroke-linejoin="round"/>
</svg>
