<svg width="50" height="48" viewBox="0 0 50 48" fill="none" xmlns="http://www.w3.org/2000/svg">
<rect width="50" height="48" rx="6" fill="#EBEFF3"/>
<path fill-rule="evenodd" clip-rule="evenodd" d="M25.0122 17.5717L23.9252 16.4847C21.7773 14.3368 18.2949 14.3368 16.147 16.4847C13.9992 18.6326 13.9992 22.115 16.147 24.2629L24.9859 33.1017L24.9877 33.0999L25.014 33.1262L33.8528 24.2874C36.0007 22.1395 36.0007 18.6571 33.8528 16.5092C31.705 14.3613 28.2226 14.3613 26.0747 16.5092L25.0122 17.5717ZM24.9877 30.2715L29.9239 25.3352L31.3747 23.9342L31.3762 23.9356L32.4386 22.8732C33.8055 21.5064 33.8055 19.2903 32.4386 17.9234C31.0718 16.5566 28.8557 16.5566 27.4889 17.9234L25.0133 20.399L25.006 20.3918L25.005 20.3929L22.511 17.8989C21.1442 16.5321 18.9281 16.5321 17.5613 17.8989C16.1944 19.2657 16.1944 21.4818 17.5613 22.8487L20.1007 25.3881L20.1025 25.3863L24.9877 30.2715Z" fill="#545D6A"/>
</svg>
